<svg data-v-ef6b5102="" width="16px" height="16px" viewBox="0 0 300 300" fill="none" xmlns="http://www.w3.org/2000/svg" class=""><path data-v-ef6b5102="" d="M300 150C300 232.843 232.843 300 150 300C67.1573 300 0 232.843 0 150C0 67.1573 67.1573 0 150 0C232.843 0 300 67.1573 300 150Z" fill="#F5F7F9"></path><path data-v-ef6b5102="" d="M256.682 187.375C245.421 150.351 281.314 84.8283 256.682 73.5105C229.745 68.5784 242.589 132.739 227.016 138.218C222.59 139.762 217.685 137.763 215.634 133.498C211.647 125.233 174.032 11.505 175.094 14.6224C173.243 9.08367 167.387 5.98806 161.766 7.54321C155.836 9.20647 152.475 15.4204 154.315 21.3174C182.832 112.642 192.211 130.679 176.227 127.474C174.134 127.05 172.318 125.725 171.308 123.853C118.754 28.1722 117.841 18.5303 104.669 25.3377C99.1622 28.1712 96.993 34.958 99.8372 40.4754C150.008 138.004 152.396 137.552 145.616 142.478C142.467 144.765 138.079 144.064 135.786 140.908L87.2434 74.0856C84.2106 69.9108 78.4706 68.7915 74.1211 71.5623C69.6516 74.3814 68.2302 80.2751 70.956 84.8284C123.281 172.664 121.547 167.662 119.76 171.877C110.335 194.202 75.0087 117.002 57.5883 129.229C53.2413 132.27 52.2634 138.347 55.4394 142.612C89.7838 189.142 95.302 213.368 135.785 247.772C145.616 256.126 179.408 283.162 212.838 254.225C233.741 236.131 267.944 224.399 256.682 187.375Z" fill="#9ED5F3"></path><path data-v-ef6b5102="" d="M263.953 214.346C263.953 245.294 234.243 270.382 197.595 270.382C155.072 272.84 102.477 230.076 131.237 214.346C131.237 183.398 160.946 158.31 197.595 158.31C234.243 158.31 263.953 183.398 263.953 214.346Z" fill="#9ED5F3"></path><path data-v-ef6b5102="" d="M86.232 116.547C114.722 128.973 170.332 106.43 177.07 127.134C178.5 149.082 128.509 132.87 122.69 144.784C121.047 148.172 122.185 152.27 125.398 154.303C131.621 158.252 218.852 198.835 216.464 197.697C220.71 199.689 222.635 204.649 220.872 208.989C218.994 213.565 213.724 215.668 209.191 213.652C138.986 182.411 125.468 173.252 126.539 186.301C126.683 188.01 127.571 189.582 128.97 190.562C200.416 241.385 208.023 243.01 201.367 252.885C198.595 257.015 192.979 258.114 188.842 255.332C115.701 206.239 116.283 204.376 111.723 209.327C109.606 211.626 109.757 215.192 112.062 217.315L160.857 262.254C163.906 265.062 164.265 269.745 161.65 272.957C158.986 276.261 154.152 276.847 150.773 274.249C85.5645 224.339 89.3941 226.187 85.8652 227.22C67.1786 232.664 125.482 268.024 114.108 280.785C111.278 283.97 106.339 284.185 103.231 281.255C69.3044 249.53 50.4909 242.875 26.8084 207.379C21.0575 198.76 2.63102 169.288 28.8244 145.309C45.2028 130.315 57.7423 104.12 86.232 116.547Z" fill="#F4E874"></path><path data-v-ef6b5102="" d="M65.3913 108.239C40.7021 105.361 17.9252 126.73 14.5177 155.967C8.60277 189.662 37.8286 235.597 53.0516 214.116C77.7408 216.993 100.518 195.625 103.925 166.387C107.333 137.15 90.0805 111.116 65.3913 108.239Z" fill="#F4E874"></path><path data-v-ef6b5102="" d="M96.9291 101.278C97.8774 101.164 98.7453 101.425 99.5167 102.06C100.208 102.647 100.674 103.429 100.883 104.406C101.14 105.335 101.076 106.166 100.722 106.916C100.288 107.73 99.5328 108.219 98.4721 108.366C93.1683 109.066 87.3341 110.5 81.0018 112.651C79.7642 115.502 78.5427 118.419 77.3695 121.401C75.7944 125.376 74.5247 128.88 73.5765 131.927C70.9407 140.35 70.78 144.489 73.0783 144.342C78.5749 144.016 83.509 141.67 87.9127 137.32L88.186 137.043L88.5717 136.701C88.861 136.407 89.1181 136.147 89.3431 135.919C90.0342 135.169 90.6128 134.485 91.0468 133.865C92.3647 132.041 92.6218 130.639 91.8182 129.629C90.8218 128.407 89.1664 128.049 86.8198 128.57C86.0162 128.749 85.0841 129.075 84.0233 129.515C83.7019 129.629 83.284 129.792 82.8179 130.02L82.2715 130.248L81.7732 130.476C81.0821 130.737 80.4232 130.672 79.7964 130.313C79.2499 129.939 78.8481 129.401 78.591 128.7C78.3017 128 78.2535 127.315 78.4785 126.647C78.6553 125.947 79.1053 125.442 79.7964 125.148C83.8947 123.47 87.5752 122.965 90.8378 123.584C94.9362 124.366 97.0256 126.99 97.1059 131.438C97.1381 135.332 94.9523 139.145 90.5164 142.86C86.7073 146.021 82.6893 148.106 78.4785 149.149C69.8317 151.267 65.8298 148.008 66.4405 139.405C66.6655 136.098 67.5816 132.057 69.1888 127.267C70.3942 123.666 71.9693 119.674 73.914 115.291L73.2551 115.519C72.339 115.894 71.4389 115.828 70.571 115.356C69.7674 114.916 69.1406 114.264 68.7067 113.401C68.2727 112.472 68.1442 111.625 68.321 110.842C68.546 109.914 69.1246 109.262 70.0728 108.887C80.2946 104.879 89.2467 102.353 96.9291 101.311V101.278Z" fill="black"></path><path data-v-ef6b5102="" d="M288.441 129.647C289.213 129.619 289.789 129.844 290.167 130.322C290.49 130.743 290.588 131.249 290.448 131.853C290.196 133.385 289.312 134.157 287.81 134.157L286.617 134.2L285.368 134.242L284.891 138.513C284.695 139.988 283.937 140.607 282.59 140.382C281.243 140.185 280.667 139.37 280.864 137.937L281.243 134.523C278.071 134.804 274.844 135.239 271.56 135.815C271.237 135.886 270.901 135.9 270.55 135.858C267.42 139.609 264.207 143.557 260.909 147.716C260.011 148.84 259.029 148.911 257.934 147.955C256.84 147 256.713 146.002 257.555 144.976C268.333 131.375 277.145 121.217 283.979 114.529C284.681 113.826 285.453 113.77 286.28 114.388C287.08 114.964 287.431 115.695 287.333 116.594C286.982 120.304 286.519 124.673 285.944 129.703L287.193 129.605H288.441V129.647ZM274.872 130.799C277.047 130.476 279.362 130.209 281.832 129.984L282.646 122.299C279.924 125.151 277.342 127.989 274.872 130.799Z" fill="black"></path><path data-v-ef6b5102="" d="M208.094 137.602C208.917 137.313 209.765 137.388 210.639 137.816C211.436 138.194 212.079 138.735 212.567 139.452C213.03 140.232 213.197 140.937 213.056 141.604C212.914 142.347 212.362 142.875 211.436 143.19C203.146 145.883 194.971 148.777 186.925 151.873C186.372 152.1 185.768 152.15 185.125 151.999C184.714 151.999 184.38 151.886 184.11 151.659C182.914 151.03 182.195 150.124 181.963 148.954C181.732 147.695 182.272 146.802 183.583 146.286L184.457 145.984L185.292 145.682C186.732 141.327 188.159 137.225 189.598 133.374L189.161 133.499C188.081 133.814 187.285 133.386 186.783 132.203C186.282 131.033 186.616 130.253 187.799 129.875C188.763 129.586 189.945 129.258 191.359 128.881C192.914 124.929 194.431 121.128 195.922 117.479C196.269 116.673 196.938 116.271 197.902 116.271H201.025C202.195 116.296 203.236 116.346 204.148 116.397C206.488 116.51 208.544 116.812 210.305 117.303C210.806 117.441 211.128 117.743 211.269 118.209C211.359 118.586 211.295 119.014 211.089 119.505C210.858 119.933 210.524 120.285 210.074 120.537C209.637 120.826 209.161 120.902 208.673 120.751C207.233 120.348 205.588 120.097 203.711 119.971C202.953 119.908 202.105 119.883 201.166 119.883H198.66C197.516 122.601 196.436 125.269 195.408 127.887C199.007 127.081 202.349 126.565 205.421 126.339C206.565 126.251 207.22 126.829 207.4 128.063C207.606 129.296 207.079 129.95 205.819 130.039C202.246 130.303 198.223 131.008 193.737 132.191C192.13 136.318 190.678 140.295 189.393 144.108C196.218 141.591 202.452 139.402 208.107 137.564L208.094 137.602Z" fill="black"></path><path data-v-ef6b5102="" d="M234 177.972C235.132 177.891 235.907 178.469 236.334 179.705C236.519 180.202 236.519 180.641 236.334 181.01C236.126 181.426 235.733 181.669 235.144 181.727C233.804 181.831 232.256 182.015 230.523 182.281C230.026 186.856 229.691 190.553 229.541 193.337C229.483 194.366 229.136 195.047 228.478 195.394C227.877 195.706 227.149 195.729 226.306 195.429C225.462 195.117 224.769 194.585 224.215 193.846C223.579 193.06 223.291 192.217 223.348 191.316C223.452 189.213 223.66 186.671 223.984 183.691C222.008 184.222 220.033 184.846 218.057 185.585C215.92 189.063 213.979 192.667 212.211 196.411C211.76 197.335 211.137 197.855 210.316 197.993C209.554 198.12 208.791 197.924 208.029 197.404C207.266 196.907 206.723 196.249 206.411 195.429C206.065 194.539 206.099 193.672 206.492 192.864C207.093 191.57 207.728 190.299 208.387 189.028C207.728 188.658 207.336 188.104 207.197 187.364C207.035 186.579 207.313 186.013 208.029 185.666C208.953 185.192 209.947 184.707 211.033 184.21C215.723 176.054 220.83 169.318 226.352 164.027C227.357 163.08 228.547 162.918 229.945 163.553C231.343 164.189 232.002 165.217 231.921 166.638C231.794 169.561 231.459 173.443 230.939 178.284C232.094 178.122 233.122 178.018 234.023 177.972H234ZM221.604 180.259C222.632 179.947 223.579 179.682 224.446 179.474L224.839 175.962C223.764 177.302 222.678 178.734 221.604 180.271V180.259Z" fill="black"></path><path data-v-ef6b5102="" d="M179.531 159.986C172.795 160.355 166.406 161.522 160.376 163.498L158.284 170.21C165.494 168.997 171.004 168.997 174.794 170.21C179.773 171.816 181.472 175.444 179.889 181.105C178.283 186.766 173.615 191.676 165.875 195.835C159.186 199.417 152.496 201.473 145.819 201.993C144.582 202.074 143.728 201.485 143.254 200.214C142.838 199.058 142.838 197.949 143.254 196.898C145.172 192.138 147.228 186.188 149.412 179.048C148.152 179.441 146.893 179.857 145.657 180.273C144.767 180.585 143.97 180.481 143.289 179.961C142.688 179.511 142.283 178.84 142.099 177.951C141.891 177.061 141.96 176.229 142.295 175.467C142.642 174.624 143.231 174.057 144.074 173.769C144.964 173.457 146.027 173.122 147.228 172.787C148.672 172.371 150.151 171.966 151.653 171.597C152.843 167.669 153.79 164.549 154.495 162.239C154.414 161.707 154.564 161.268 154.934 160.898L155.57 158.888C156.101 157.305 157.083 156.531 158.527 156.554C159.89 156.612 160.815 157.282 161.288 158.565C166.868 156.959 172.622 156 178.549 155.676C179.265 155.619 179.889 155.827 180.443 156.266C180.917 156.635 181.229 157.109 181.391 157.687C181.552 158.287 181.483 158.807 181.194 159.223C180.848 159.697 180.293 159.951 179.531 159.974V159.986ZM166.661 175.86C163.345 175.964 159.844 176.426 156.159 177.246C154.021 184.27 152.161 190.024 150.555 194.507C154.611 193.617 158.527 192.161 162.328 190.163C166.36 188.025 169.479 185.645 171.686 183.011L171.929 182.734L172.171 182.457C172.414 182.191 172.622 181.96 172.807 181.74C173.304 181.082 173.696 180.504 173.997 180.007C174.84 178.529 174.748 177.535 173.719 177.004C171.929 176.137 169.583 175.756 166.695 175.86H166.661Z" fill="black"></path><path data-v-ef6b5102="" d="M117.866 167.807C118.524 170.602 117.115 173.837 113.637 177.523C112.401 178.817 110.888 180.18 109.097 181.624C108.438 182.156 107.71 182.722 106.925 183.322C106.659 183.53 106.347 183.773 105.978 184.039L105.538 184.397L105.146 184.674C94.2511 192.808 83.9572 198.18 74.2642 200.791C73.5017 200.999 72.924 200.756 72.5312 200.04C72.1846 199.358 72.1499 198.677 72.4157 197.983C74.3912 192.565 76.0664 188.14 77.4297 184.72C79.4284 179.718 81.404 175.328 83.3565 171.527C79.775 172.948 76.6672 174.531 74.0331 176.263C73.4785 176.61 72.9356 176.714 72.4157 176.575C71.942 176.471 71.5723 176.183 71.3066 175.709C71.0408 175.258 70.9484 174.796 71.0293 174.323C71.1102 173.768 71.399 173.341 71.8958 173.017C73.2128 172.127 75.1075 171.065 77.5799 169.863C80.3989 168.5 83.3218 167.217 86.3487 166.027L86.9842 164.965L87.5734 163.936C88.0701 163.174 88.6825 162.885 89.3872 163.07C90.0226 163.232 90.4616 163.694 90.7274 164.456C97.7055 162.088 103.447 160.979 107.942 161.14C113.603 161.348 116.907 163.578 117.854 167.818L117.866 167.807ZM99.5424 183.958C99.6233 183.9 99.8081 183.773 100.097 183.565L100.49 183.288L100.929 183.011C101.691 182.433 102.431 181.89 103.135 181.393C105.273 179.81 107.11 178.343 108.669 176.968C113.406 172.786 115.128 169.909 113.845 168.361C112.054 166.201 108.785 165.346 104.048 165.796C102.361 165.981 100.455 166.328 98.3178 166.825C97.5322 167.009 96.6541 167.229 95.7068 167.495C95.3948 167.599 95.0136 167.703 94.563 167.807L94.0547 167.968L93.5463 168.13C91.7556 168.627 90.0919 169.135 88.5669 169.632C85.1125 175.709 81.3462 184.385 77.2333 195.65C84.6042 193.223 92.0444 189.33 99.5424 183.958Z" fill="black"></path><path data-v-ef6b5102="" d="M124.506 162.006C129.301 161.371 133.113 161.741 135.955 163.115C139.433 164.802 141.224 167.933 141.328 172.508C141.408 177.06 140.126 181.797 137.492 186.718C134.407 192.484 130.699 195.21 126.355 194.898C120.278 194.482 117.401 190.958 117.748 184.35C117.852 181.797 118.441 178.874 119.527 175.581C120.393 172.924 121.502 170.221 122.843 167.483C121.918 166.766 121.63 165.726 121.976 164.363C122.323 162.965 123.166 162.18 124.506 161.995V162.006ZM135.204 176.067C135.99 170.694 133.887 167.922 128.885 167.737C127.984 169.343 127.221 170.787 126.597 172.081C125.731 173.814 125.049 175.42 124.541 176.898C123.201 180.711 122.935 183.796 123.755 186.141C124.356 187.874 125.454 188.717 127.036 188.671C128.561 188.613 129.855 187.839 130.907 186.337C133.217 183.102 134.661 179.683 135.216 176.067H135.204Z" fill="black"></path><path data-v-ef6b5102="" d="M210.825 154.416C214.163 155.999 215.631 159.176 215.203 163.971C214.891 167.783 213.678 171.376 211.576 174.75C208.895 179.094 205.256 182.513 200.681 185.02C195.967 187.574 191.126 188.671 186.147 188.302L185.916 189.526L185.673 190.751C185.465 191.802 185.304 192.576 185.2 193.085C184.853 194.818 184.564 196.215 184.333 197.267C184.171 197.983 183.79 198.514 183.189 198.884C182.658 199.196 182.08 199.335 181.456 199.277C180.821 199.196 180.336 198.93 180.001 198.491C179.608 197.995 179.504 197.348 179.689 196.562C179.851 195.961 180.047 195.06 180.278 193.882L180.44 193.131L180.636 192.345C180.763 191.71 180.89 191.155 180.994 190.681C181.63 187.816 182.219 185.309 182.774 183.183C184.437 176.656 186.251 171.238 188.227 166.917C194.072 154.254 201.617 150.095 210.859 154.439L210.825 154.416ZM208.144 171.55C208.884 170.024 209.369 168.268 209.6 166.293C209.843 164.213 209.715 162.411 209.242 160.886C208.71 159.153 207.786 158.044 206.434 157.57C204.852 157.039 202.853 157.397 200.427 158.633C197.007 160.424 194.119 163.786 191.773 168.707C190.04 172.393 188.492 177.291 187.152 183.391C191.369 183.68 195.447 182.721 199.398 180.503C203.396 178.262 206.307 175.281 208.121 171.538L208.144 171.55Z" fill="black"></path><path data-v-ef6b5102="" d="M45.0087 109.691C38.2732 110.061 31.8844 111.228 25.8536 113.203L23.7625 119.916C30.9717 118.703 36.4825 118.703 40.2719 119.916C45.2513 121.522 46.9496 125.149 45.3669 130.81C43.761 136.471 39.0935 141.381 31.3529 145.54C24.6637 149.122 17.9744 151.178 11.2967 151.698C10.0605 151.779 9.20557 151.19 8.73189 149.919C8.31598 148.764 8.31598 147.655 8.73189 146.603C10.6497 141.843 12.7062 135.894 14.8897 128.754C13.6304 129.147 12.3711 129.562 11.1349 129.978C10.2453 130.29 9.44818 130.186 8.76655 129.666C8.16579 129.216 7.76143 128.546 7.57658 127.656C7.36862 126.767 7.43794 125.935 7.77298 125.172C8.11957 124.329 8.70878 123.763 9.55216 123.474C10.4418 123.162 11.5046 122.827 12.7062 122.492C14.1503 122.076 15.6291 121.672 17.131 121.302C18.321 117.374 19.2683 114.255 19.9731 111.944C19.8922 111.413 20.0424 110.973 20.4121 110.604L21.0475 108.594C21.579 107.011 22.561 106.237 24.0051 106.26C25.3684 106.318 26.2926 106.988 26.7663 108.27C32.3465 106.664 38.0999 105.705 44.0267 105.382C44.743 105.324 45.3669 105.532 45.9214 105.971C46.3951 106.341 46.707 106.814 46.8688 107.392C47.0305 107.993 46.9612 108.513 46.6724 108.929C46.3258 109.402 45.7712 109.656 45.0087 109.68V109.691ZM32.1385 125.565C28.8228 125.669 25.3222 126.131 21.6367 126.951C19.4994 133.976 17.6394 139.729 16.0335 144.212C20.0886 143.322 24.0051 141.867 27.8061 139.868C31.8382 137.731 34.9575 135.351 37.1641 132.716L37.4068 132.439L37.6494 132.162C37.892 131.896 38.0999 131.665 38.2848 131.446C38.7816 130.787 39.1744 130.209 39.4748 129.713C40.3181 128.234 40.2257 127.24 39.1975 126.709C37.4068 125.842 35.0615 125.461 32.1732 125.565H32.1385Z" fill="black"></path><path data-v-ef6b5102="" d="M253.744 138.273C254.61 138.435 255.315 138.862 255.835 139.579C256.332 140.26 256.597 141.011 256.621 141.832C256.667 142.675 256.459 143.333 255.985 143.807C255.454 144.362 254.703 144.558 253.732 144.396L250.532 143.807L247.332 143.172C244.49 142.617 242.318 142.224 240.816 141.982C235.733 141.115 231.377 140.757 227.749 140.919C225.543 143.206 223.301 145.598 221.037 148.07C219.986 149.226 218.703 149.33 217.201 148.382C215.699 147.435 215.145 146.222 215.538 144.754C220.17 127.933 225.566 113.942 231.724 102.782C232.197 101.915 232.867 101.419 233.734 101.28C234.496 101.176 235.259 101.361 236.021 101.835C236.761 102.331 237.269 102.967 237.558 103.729C237.905 104.573 237.847 105.393 237.396 106.179C233.029 114.127 229.147 123.162 225.751 133.271C232.07 126.847 238.159 121.105 244.039 116.056C244.779 115.421 245.587 115.178 246.489 115.306C247.309 115.433 248.037 115.837 248.695 116.495C249.331 117.154 249.677 117.87 249.758 118.633C249.862 119.499 249.573 120.227 248.892 120.805C243.912 125.091 238.817 129.839 233.607 135.015C236.345 135.258 239.695 135.731 243.681 136.436L248.741 137.384L253.721 138.296L253.744 138.273Z" fill="black"></path><path data-v-ef6b5102="" d="M119.589 114.554C119.832 116.715 120.028 119.187 120.178 121.983L120.421 125.692L120.617 129.4C120.929 135.766 121.345 140.722 121.842 144.246C122.004 145.482 121.449 146.164 120.178 146.302C119.682 146.325 119.231 146.21 118.838 145.944C118.388 145.655 118.145 145.251 118.087 144.72C117.614 141.427 117.232 137.337 116.944 132.439L116.585 126.315L116.227 120.158L110.428 129.123C108.186 132.6 106.234 135.581 104.547 138.088C100.076 144.754 95.8937 150.519 92.035 155.383C91.2956 156.307 90.3713 156.388 89.2738 155.626C88.8232 155.314 88.5344 154.944 88.4073 154.517C88.2455 154.02 88.338 153.558 88.6846 153.13C92.9246 147.781 97.6267 141.231 102.779 133.467C104.408 130.994 106.615 127.609 109.376 123.323L112.657 118.263L115.973 113.168C116.493 112.348 117.221 112.163 118.145 112.613C119.012 113.029 119.497 113.676 119.601 114.543L119.589 114.554Z" fill="black"></path><path data-v-ef6b5102="" d="M147.106 111.712C151.9 111.076 155.713 111.446 158.555 112.821C162.033 114.508 163.823 117.638 163.927 122.213C164.008 126.765 162.726 131.502 160.092 136.424C157.007 142.189 153.298 144.915 148.954 144.603C142.877 144.188 140.001 140.664 140.347 134.055C140.451 131.502 141.04 128.579 142.126 125.287C142.993 122.629 144.102 119.926 145.442 117.188C144.518 116.472 144.229 115.432 144.576 114.069C144.922 112.671 145.766 111.885 147.106 111.7V111.712ZM157.804 125.772C158.59 120.4 156.487 117.627 151.485 117.442C150.583 119.048 149.821 120.492 149.197 121.786C148.33 123.519 147.649 125.125 147.141 126.604C145.8 130.416 145.535 133.501 146.355 135.846C146.956 137.579 148.053 138.423 149.636 138.376C151.161 138.319 152.455 137.544 153.506 136.043C155.817 132.808 157.261 129.388 157.816 125.772H157.804Z" fill="black"></path><path data-v-ef6b5102="" d="M198.448 108.203C199.164 108.122 199.776 108.296 200.308 108.712C200.805 109.081 201.14 109.566 201.29 110.167C201.452 110.768 201.382 111.299 201.094 111.75C200.782 112.281 200.227 112.582 199.43 112.663C195.872 113.079 190.673 113.795 183.833 114.8C181.199 119.144 178.877 124.354 176.844 130.443C176.058 132.834 175.226 135.573 174.36 138.657L173.25 142.805L172.188 146.952C171.945 147.9 171.471 148.477 170.767 148.685C170.166 148.87 169.484 148.755 168.756 148.327C168.04 147.911 167.497 147.311 167.093 146.548C166.677 145.705 166.561 144.873 166.781 144.064C169.992 131.564 173.135 122.171 176.22 115.909C172.349 116.441 169.057 116.856 166.353 117.168C165.637 117.249 165.025 117.076 164.493 116.66C163.996 116.29 163.661 115.805 163.511 115.204C163.349 114.604 163.419 114.072 163.708 113.622C164.02 113.09 164.563 112.79 165.325 112.709C168.722 112.316 173.262 111.704 178.946 110.895L179.258 110.306L179.616 109.717C180.217 108.746 180.98 108.353 181.904 108.527C182.77 108.712 183.498 109.255 184.076 110.144C190.187 109.255 194.97 108.608 198.448 108.215V108.203Z" fill="black"></path><path data-v-ef6b5102="" fill-rule="evenodd" clip-rule="evenodd" d="M59.0999 122.045C58.6838 122.31 58.2992 122.545 57.971 122.741C57.6339 122.943 57.3536 123.105 57.1561 123.217C57.0573 123.273 56.979 123.317 56.9245 123.348L56.869 123.378L56.8225 123.406C56.7738 123.435 56.7033 123.477 56.6132 123.53C56.4331 123.636 56.1743 123.786 55.8546 123.966C55.2164 124.327 54.3295 124.812 53.3372 125.309C52.3482 125.804 51.2345 126.321 50.1459 126.738C49.0821 127.146 47.9358 127.502 46.9119 127.604C45.9595 127.699 45.1103 127.004 45.0151 126.052C44.9198 125.1 45.6147 124.25 46.567 124.155C47.1292 124.099 47.9341 123.875 48.9047 123.502C49.8507 123.139 50.8548 122.675 51.7854 122.209C52.7127 121.745 53.5472 121.289 54.1504 120.948C54.4514 120.778 54.6934 120.638 54.8588 120.541C54.9415 120.492 55.005 120.455 55.0471 120.43L55.0939 120.402L55.1047 120.395L55.1069 120.394L55.1392 120.374L55.172 120.356L55.1745 120.355L55.1862 120.348L55.2374 120.32C55.2834 120.294 55.3527 120.255 55.4421 120.205C55.6209 120.103 55.8794 119.954 56.1923 119.766C56.8203 119.391 57.6564 118.87 58.5024 118.281C59.1611 117.822 59.9667 116.872 60.7061 115.999C60.873 115.802 61.0425 115.603 61.1922 115.438C61.3074 115.311 61.5283 115.069 61.7782 114.893C61.8523 114.84 61.976 114.759 62.1384 114.689C62.2824 114.627 62.5975 114.51 63.0079 114.544C63.503 114.585 63.975 114.835 64.2867 115.26C64.5459 115.613 64.606 115.967 64.6242 116.135C64.66 116.465 64.5987 116.746 64.5755 116.85C64.5425 116.997 64.4979 117.144 64.4534 117.277C63.6364 119.729 62.354 123.26 61.2823 126.162C60.7451 127.617 60.2586 128.919 59.9064 129.858C59.7303 130.328 59.5877 130.706 59.4891 130.968L59.3479 131.342L59.2554 131.619C59.1883 131.82 59.0902 132.113 58.9663 132.483C58.7185 133.223 58.3676 134.268 57.9549 135.491C57.1299 137.937 56.057 141.097 55.0677 143.948C54.7538 144.852 53.7664 145.33 52.8623 145.016C51.9581 144.703 51.4795 143.715 51.7933 142.811C52.7778 139.975 53.8471 136.825 54.6708 134.384C55.0826 133.163 55.4327 132.12 55.6798 131.382C55.8034 131.013 55.9012 130.721 55.9681 130.52L56.0709 130.213L57.7149 130.761L56.0943 130.147L56.2461 129.745C56.3441 129.485 56.486 129.108 56.6613 128.641C57.012 127.706 57.4963 126.409 58.031 124.961C58.3747 124.031 58.7383 123.04 59.0999 122.045ZM57.7149 130.761L56.0943 130.147L56.0819 130.18L56.0709 130.213L57.7149 130.761Z" fill="black"></path><path data-v-ef6b5102="" fill-rule="evenodd" clip-rule="evenodd" d="M65.3668 106.554C64.7211 106.24 64.1978 105.729 63.782 105.105C63.2511 104.308 63.4662 103.233 64.2626 102.702C64.5786 102.491 64.9386 102.398 65.2911 102.412C65.8237 102.083 66.3112 101.833 66.7563 101.667C67.2651 101.476 67.9851 101.29 68.7156 101.504C69.1258 101.624 69.531 101.87 69.829 102.272C70.1179 102.662 70.2227 103.085 70.2428 103.433C70.2801 104.08 70.0429 104.643 69.8259 105.015C69.3874 105.767 68.5224 106.595 67.345 106.82C66.7153 106.94 66.0282 106.876 65.3668 106.554ZM68.1214 104.867C68.1212 104.867 68.1146 104.869 68.1021 104.871C68.1153 104.867 68.1216 104.867 68.1214 104.867ZM66.8317 103.269C66.8316 103.27 66.8316 103.27 66.8315 103.27C66.8403 103.25 66.8434 103.249 66.8317 103.269Z" fill="black"></path><path data-v-ef6b5102="" fill-rule="evenodd" clip-rule="evenodd" d="M141.222 109.631C139.8 110.392 138.08 109.978 136.434 109.044C135.602 108.572 135.31 107.515 135.782 106.682C135.814 106.625 135.85 106.57 135.887 106.518C135.876 106.506 135.866 106.493 135.855 106.48C135.248 105.74 135.356 104.648 136.096 104.041C137.518 102.874 139.135 102.418 140.612 103.053C141.974 103.639 142.687 104.943 142.855 106.096C143.021 107.234 142.71 108.835 141.222 109.631ZM138.82 106.363C138.951 106.296 139.049 106.263 139.115 106.248C139.181 106.233 139.218 106.234 139.23 106.235C139.236 106.235 139.24 106.236 139.241 106.236L139.243 106.237C139.243 106.237 139.244 106.238 139.247 106.24C139.251 106.242 139.256 106.245 139.262 106.251C139.276 106.263 139.297 106.284 139.32 106.318C139.361 106.378 139.396 106.458 139.415 106.544C139.274 106.521 139.077 106.469 138.82 106.363ZM139.639 106.554C139.639 106.554 139.637 106.555 139.634 106.555C139.637 106.554 139.639 106.554 139.639 106.554Z" fill="black"></path><path data-v-ef6b5102="" fill-rule="evenodd" clip-rule="evenodd" d="M137.918 113.144C139.495 113.651 140.363 115.341 139.856 116.918L130.856 144.918C130.349 146.495 128.659 147.363 127.082 146.856C125.504 146.349 124.637 144.659 125.144 143.082L134.144 115.082C134.651 113.505 136.34 112.637 137.918 113.144Z" fill="black"></path></svg>