<svg data-v-0f70af0a="" data-v-d8b62b8c="" width="133" height="133" viewBox="0 0 133 133" fill="none" xmlns="http://www.w3.org/2000/svg" class="info__logo" data-v-2260e3a3=""><path data-v-0f70af0a="" d="M0 66.5C0 103.227 29.7731 133 66.5 133C103.227 133 133 103.227 133 66.5C133 29.7731 103.227 0 66.5 0C29.7731 0 0 29.7731 0 66.5Z" fill="url(#jsqvcpn0rco_1)"></path> <path data-v-0f70af0a="" fill-rule="evenodd" clip-rule="evenodd" d="M103.802 29.1703C96.7442 22.1279 85.9557 22.1279 66.5188 22.1279C65.1157 22.1279 63.7713 22.1279 62.4568 22.1313C62.4634 22.2554 62.4756 22.3884 62.4756 22.5092C62.4778 26.6233 62.469 30.7375 62.4834 34.8516C62.4867 35.7837 62.3404 36.5706 61.6011 36.9408C60.8885 37.2977 60.3908 36.8156 59.9187 36.1971C58.5831 34.4459 57.2354 32.7103 55.8323 30.8904C54.5012 32.6161 53.2365 34.2586 51.9697 35.899C51.7747 36.1517 51.6029 36.523 51.3668 36.6172C50.9235 36.7956 50.3615 37.0417 49.998 36.8311C49.6334 36.6194 49.2299 35.889 49.2233 35.3769C49.1667 31.0955 49.1856 26.8062 49.1878 22.4316C40.0496 22.9891 33.844 24.5829 29.2511 29.1858C22.1932 36.2281 22.1932 47.0322 22.1932 66.4535C22.1932 85.8748 22.1932 96.6789 29.2511 103.737C36.2935 110.795 47.0975 110.795 66.5188 110.795C85.9401 110.795 96.7442 110.795 103.802 103.737C110.86 96.6789 110.86 85.8903 110.86 66.4535C110.86 47.0167 110.86 36.2281 103.802 29.1703ZM72.0649 63.1751V69.0171H56.4862C57.3385 75.2249 61.3551 79.1195 67.4398 79.1195C72.0649 79.1195 75.473 76.5637 77.1765 72.3033L83.8709 74.6153C81.6797 81.4315 75.3511 85.3262 67.4398 85.3262C56.6081 85.3262 49.1834 77.6588 49.1834 66.4613C49.1834 55.2638 56.6081 47.5963 67.4398 47.5963C75.3511 47.5963 81.6797 51.491 83.8709 58.3073L77.1765 60.6192C75.473 56.3588 72.0649 53.803 67.4398 53.803C61.5978 53.803 57.7031 57.4538 56.6081 63.1751H72.0649Z" fill="#010101"></path> <defs data-v-0f70af0a=""><linearGradient data-v-0f70af0a="" id="jsqvcpn0rco_1" x1="0" y1="66.5" x2="133" y2="66.5" gradientUnits="userSpaceOnUse"><stop data-v-0f70af0a="" stop-color="#E2E47B"></stop> <stop data-v-0f70af0a="" offset="1" stop-color="#78C2A3"></stop></linearGradient></defs></svg>