<svg width="110" height="26" viewBox="0 0 602 150" fill="none" xmlns="http://www.w3.org/2000/svg" itemprop="image" title=" &quot;Yakaboo – інтернет-магазин з продажу книг" data-v-acbcb6fe="" class=""><path d="M177.892 106.719L157.257 79.0139L176.417 51.309L156.949 51.309L140.965 77.4012L140.965 24.8882L124.524 24.8882L124.524 106.719L140.965 106.719L140.965 80.6781L157.681 106.719L177.892 106.719Z" fill="#FF00C5" data-v-acbcb6fe=""></path><path d="M80.1994 49.7993C87.6156 49.7993 93.8937 52.5633 96.7468 57.17L96.7468 50.9535L113.866 50.9535L113.866 105.561L97.3185 105.561L97.3185 98.6607C93.7783 103.845 88.072 106.725 80.771 106.725C65.2264 106.725 53.3824 96.0131 53.3824 78.5026C53.3824 61.0883 65.7078 49.7993 80.1994 49.7993ZM83.6242 64.2016C76.6592 64.2016 70.5016 69.2639 70.5016 78.4874C70.5016 87.1288 76.7746 92.3075 83.6242 92.3075C91.4968 92.3075 97.3185 87.2452 97.3185 78.4874C97.3185 69.1525 91.4968 64.2016 83.6242 64.2016Z" fill="#FF00C5" data-v-acbcb6fe=""></path><path d="M195.633 49.7993C203.485 49.7993 210.127 52.5633 213.154 57.17L213.154 50.9535L231.274 50.9535L231.274 105.561L213.754 105.561L213.754 98.6607C210.01 103.845 203.968 106.725 196.233 106.725C179.774 106.725 167.233 96.0131 167.233 78.5026C167.233 61.0883 180.283 49.7993 195.633 49.7993ZM199.254 64.2016C191.884 64.2016 185.359 69.2639 185.359 78.4874C185.359 87.1288 192.006 92.3075 199.254 92.3075C207.595 92.3075 213.754 87.2452 213.754 78.4874C213.754 69.1525 207.595 64.2016 199.254 64.2016Z" fill="#FF00C5" data-v-acbcb6fe=""></path><path d="M255.655 24.8882L255.655 57.7359C259.224 53.0108 265.445 49.7848 272.36 49.7848C286.879 49.7848 298.861 61.0784 298.861 78.4848C298.861 95.8912 287.106 106.719 271.788 106.719C264.529 106.719 258.626 103.954 255.083 99.2286L255.083 105.569L238.377 105.569L238.377 24.8882L255.655 24.8882ZM281.573 78.4848C281.573 69.2625 275.812 64.193 268.325 64.193C260.838 64.193 255.078 69.2574 255.078 78.4848C255.078 87.2411 260.95 92.3106 268.325 92.3106C275.701 92.3106 281.573 87.2411 281.573 78.4848Z" fill="#FF00C5" data-v-acbcb6fe=""></path><path d="M8.78207 124.514L25.5174 124.514L60.4836 49.7993L43.7434 49.7993L30.1315 78.9226L17.2994 49.7993L0.000106812 49.7993L21.428 97.4866L8.78207 124.514Z" fill="#FF00C5" data-v-acbcb6fe=""></path><path d="M459.046 72.991C459.046 38.6413 487.441 10.7954 522.468 10.7954C557.495 10.7954 585.89 38.6413 585.89 72.991C585.89 107.341 557.495 135.187 522.468 135.187C487.441 135.187 459.046 107.341 459.046 72.991Z" fill="white" data-v-acbcb6fe=""></path><path d="M451.849 74.7149C451.849 89.4924 456.231 103.938 464.441 116.225C472.651 128.512 484.32 138.088 497.973 143.743C511.626 149.398 526.649 150.877 541.142 147.994C555.635 145.111 568.948 137.994 579.397 127.544C589.846 117.095 596.962 103.781 599.844 89.2878C602.726 74.7942 601.246 59.7713 595.59 46.1191C589.934 32.4668 580.357 20.7983 568.069 12.5891C555.782 4.38 541.336 -0.00106163 526.558 1.92969e-07C516.747 1.67636e-07 507.032 1.9326 497.967 5.68744C488.903 9.44229 480.666 14.9458 473.729 21.8838C466.791 28.8218 461.288 37.0584 457.534 46.1232C453.78 55.188 451.848 64.9035 451.849 74.7149ZM473.023 60.9123C473.023 59.0997 473.56 57.3279 474.567 55.8209C475.574 54.3138 477.005 53.1392 478.68 52.4456C480.354 51.752 482.197 51.5705 483.975 51.9241C485.752 52.2777 487.385 53.1505 488.667 54.4322C489.949 55.7138 490.821 57.3467 491.175 59.1244C491.529 60.9021 491.347 62.7447 490.654 64.4192C489.96 66.0938 488.785 67.525 487.278 68.532C485.771 69.539 483.999 70.0765 482.187 70.0765C479.757 70.075 477.427 69.1091 475.708 67.3908C473.99 65.6724 473.024 63.3423 473.023 60.9123ZM473.023 88.4049C473.023 86.5924 473.56 84.8206 474.567 83.3135C475.574 81.8065 477.005 80.6319 478.68 79.9383C480.354 79.2446 482.197 79.0632 483.975 79.4168C485.752 79.7704 487.385 80.6432 488.667 81.9248C489.949 83.2065 490.821 84.8394 491.175 86.6171C491.529 88.3947 491.347 90.2374 490.654 91.9119C489.96 93.5864 488.785 95.0177 487.278 96.0247C485.771 97.0316 483.999 97.5691 482.187 97.5691C479.756 97.5691 477.425 96.6036 475.707 94.885C473.988 93.1664 473.023 90.8354 473.023 88.4049ZM579.187 79.8151V98.1382L550.733 84.2925L500.51 107.769V88.829L531.175 74.7794L500.51 59.8761V41.5477L579.187 79.8151Z" fill="#FF00C5" data-v-acbcb6fe=""></path><path d="M373.015 60.5694C376.119 54.8803 382.377 57.6038 386.076 61.1959C385.305 60.6677 384.494 60.2009 383.624 59.8482C382.731 59.4867 381.608 59.2042 380.613 59.3095C379.705 58.6584 378.593 58.3075 377.484 58.7339C376.076 59.2744 375.604 60.5993 375.358 61.9435C374.59 62.1944 373.925 62.7296 373.505 63.4789C372.758 64.8126 372.926 66.4112 373.107 67.8572C373.551 71.4124 374.641 74.8483 375.936 78.1842C376.701 80.1566 377.551 82.0957 378.484 83.9927C378.834 84.8981 379.214 85.7966 379.632 86.6793C377.697 84.0716 376.022 81.2815 374.715 78.3141C373.517 75.5959 372.658 72.6987 372.201 69.7682C371.737 66.7937 371.522 63.3069 373.015 60.5694ZM407.135 61.2099C408.086 60.2939 409.18 59.4253 410.371 58.6707C409.102 60.2641 407.974 61.9768 406.925 63.7281C406.633 64.0457 406.345 64.3668 406.062 64.6932C403.332 67.8466 401.056 71.2966 398.924 74.8483C400.951 69.9243 403.254 64.9547 407.135 61.2099ZM426.672 68.6872C426.708 66.8552 426.495 64.9442 426.301 63.2245C426.046 60.9888 425.4 58.7971 423.48 57.402C423.275 57.2546 423.063 57.1212 422.846 57.0001C427.459 59.1919 427.936 64.3124 426.672 68.6872ZM399.848 103.51C399.679 103.445 399.509 103.382 399.342 103.313C399.662 102.68 399.735 101.943 399.698 101.197C399.865 101.058 400.01 100.897 400.122 100.714C401.679 100.644 402.724 99.3613 403.227 98.0101C403.565 97.1029 403.749 96.1184 403.886 95.1234C404.121 94.9339 404.347 94.7339 404.557 94.5198C404.505 95.1901 404.485 95.8657 404.507 96.5431C404.528 97.2117 404.859 97.6925 405.32 97.9575C403.612 99.9193 401.835 101.818 399.848 103.51ZM378.756 71.6019C378.544 70.1753 378.414 68.7346 378.378 67.2939C378.546 67.4974 378.709 67.7045 378.869 67.9168C378.789 70.5736 379.77 72.9567 380.683 75.4994C381.695 78.3176 382.763 81.113 383.972 83.8558C385.15 86.5249 386.467 89.1413 388.02 91.6191C388.136 91.8051 388.254 91.9928 388.374 92.1806C388.257 92.1525 388.121 92.0999 387.957 92.0192C387.554 91.8209 387.179 91.5735 386.828 91.2874C385.398 89.1904 384.092 87.0109 382.904 84.7981C382.17 83.4329 381.473 82.036 380.823 80.6129C379.853 77.6788 379.204 74.6307 378.756 71.6019ZM391.244 72.2495C392.546 74.3798 393.526 76.6523 394.162 79.0265C393.871 78.3773 393.573 77.7315 393.261 77.0927C393.227 77.0243 393.188 76.9629 393.145 76.9067C392.967 76.2434 392.792 75.5783 392.625 74.9133C392.387 73.9622 391.189 73.7902 390.519 74.2605C389.584 72.1722 388.537 70.1384 387.325 68.1818C386.745 67.2447 386.143 66.2866 385.516 65.3355C387.808 67.2728 389.738 69.7892 391.244 72.2495ZM422.118 63.2666C422.218 62.7928 422.302 62.2821 422.346 61.7767C422.478 62.1698 422.561 62.591 422.617 63.0174C422.448 63.0964 422.282 63.1788 422.118 63.2666ZM420.817 77.7104C421.31 77.1366 421.821 76.5768 422.353 76.0399C422.777 75.6117 423.252 75.2063 423.729 74.7939C422.063 77.5051 420.136 80.1005 418.139 82.6169C419.082 81.0095 419.977 79.374 420.817 77.7104ZM412.522 88.5025C412.741 88.5868 412.98 88.6341 413.22 88.6429C412.691 89.2782 412.163 89.9116 411.631 90.5434C411.93 89.8625 412.225 89.1816 412.522 88.5025ZM404.914 87.7743C405.005 87.5093 405.09 87.2513 405.167 87.0039C405.861 84.7753 406.628 82.5572 407.504 80.3918C409.255 76.0521 411.513 71.8967 414.147 68.0168C414.523 67.4623 414.905 66.9043 415.297 66.3498C413.62 70.3701 411.684 74.285 409.75 78.1877C408.445 80.8182 407.119 83.4381 405.774 86.0475C405.482 86.6108 405.199 87.2092 404.909 87.8129C404.911 87.8006 404.913 87.7866 404.914 87.7743ZM393.739 98.7506C394.513 99.3438 395.341 99.2946 395.917 98.9051C396.057 99.5543 396.018 100.56 396.26 101.171C396.184 101.142 396.117 101.116 396.076 101.095C395.571 100.837 395.082 100.521 394.624 100.191C393.584 99.4385 392.661 98.5243 391.796 97.5854C391.169 96.9046 390.567 96.1991 389.977 95.4832C390.136 95.4235 390.296 95.3533 390.454 95.2673C391.43 96.5817 392.513 97.8136 393.739 98.7506ZM387.18 83.4013C387.098 83.2363 387.014 83.0731 386.933 82.9082C385.996 81.0025 385.132 79.0634 384.305 77.1085C385.388 79.1511 386.377 81.2429 387.18 83.4013ZM417.377 56.3245C417.388 56.321 417.399 56.3193 417.409 56.3175C417.399 56.321 417.388 56.321 417.377 56.3245ZM421.116 69.9138C420.49 71.3106 419.826 72.6917 419.127 74.0569C418.874 74.3254 418.618 74.5939 418.374 74.8712C418.326 74.9256 418.28 74.9817 418.232 75.0361C419.116 72.8338 419.956 70.6105 420.687 68.3661C421.241 67.7256 421.835 67.1237 422.474 66.6165C422.133 67.7554 421.59 68.8627 421.116 69.9138ZM412.592 63.3227C413.505 62.5366 414.462 61.8048 415.473 61.145C415.484 61.138 415.496 61.131 415.507 61.124C415.023 61.6732 414.59 62.2154 414.229 62.6629C413.277 63.8439 412.366 65.053 411.49 66.2884C411.855 65.2986 412.223 64.3107 412.592 63.3227ZM392.109 87.862C391.969 87.1145 391.797 86.3774 391.604 85.6439C391.663 85.6404 391.722 85.6352 391.779 85.6264C392.543 88.7219 393.548 91.7542 394.83 94.6795C394.032 93.7652 393.219 92.8685 392.447 91.9297C392.585 90.5574 392.334 89.0641 392.109 87.862ZM397.124 84.7016C397.131 85.4386 397.148 86.1756 397.179 86.9109C396.945 86.1897 396.7 85.4737 396.448 84.7595C396.514 84.7683 396.581 84.7718 396.651 84.7736C396.807 84.7753 396.967 84.749 397.124 84.7016ZM378.019 90.8224C382.345 96.1658 387.733 101.032 393.777 104.42C395.39 105.326 397.087 106.105 398.84 106.709C399.828 107.049 400.474 107.191 401.362 106.57C402.134 106.028 402.814 105.291 403.487 104.638C406.272 101.936 408.709 98.9103 411.166 95.9219C416.267 89.7151 421.364 83.4452 425.665 76.6628C429.068 71.2984 432.125 63.8386 428.05 57.9565C425.895 54.8487 422.611 53.5151 419.148 53.4133C418.757 53.1834 418.315 53.0378 417.833 53.0062C416.943 52.95 416.171 53.2817 415.464 53.7415C412.834 54.2732 410.294 55.4015 408.255 56.8984C402.318 61.2556 399.339 67.9379 396.818 74.5886C395.597 70.0331 393.756 65.618 391.151 61.7557C387.609 56.5053 380.448 50.8688 373.795 54.3591C367.004 57.9214 367.412 66.8955 368.911 73.2076C370.456 79.7092 373.819 85.6352 378.019 90.8224Z" fill="#FD03C6" data-v-acbcb6fe=""></path><path d="M307.934 60.5694C310.988 54.8803 317.145 57.6038 320.784 61.1959C320.026 60.6677 319.228 60.2009 318.372 59.8482C317.493 59.4867 316.388 59.2042 315.41 59.3095C314.516 58.6584 313.422 58.3075 312.331 58.7339C310.946 59.2744 310.482 60.5993 310.24 61.9435C309.484 62.1944 308.83 62.7296 308.416 63.4789C307.681 64.8126 307.847 66.4112 308.024 67.8572C308.461 71.4124 309.534 74.8483 310.808 78.1842C311.561 80.1566 312.397 82.0957 313.315 83.9927C313.659 84.8981 314.033 85.7966 314.444 86.6793C312.541 84.0716 310.893 81.2815 309.606 78.3141C308.428 75.5959 307.583 72.6987 307.133 69.7682C306.677 66.7937 306.465 63.3069 307.934 60.5694ZM341.504 61.2099C342.439 60.2939 343.516 59.4253 344.687 58.6707C343.439 60.2641 342.329 61.9768 341.297 63.7281C341.01 64.0457 340.727 64.3668 340.448 64.6932C337.762 67.8466 335.523 71.2966 333.425 74.8483C335.42 69.9243 337.685 64.9547 341.504 61.2099ZM360.726 68.6872C360.761 66.8552 360.551 64.9442 360.36 63.2245C360.11 60.9888 359.474 58.7971 357.585 57.402C357.384 57.2546 357.175 57.1212 356.962 57.0001C361.5 59.1919 361.969 64.3124 360.726 68.6872ZM334.334 103.51C334.168 103.445 334.001 103.382 333.837 103.313C334.152 102.68 334.224 101.943 334.187 101.197C334.351 101.058 334.493 100.897 334.604 100.714C336.136 100.644 337.163 99.3613 337.659 98.0101C337.992 97.1029 338.172 96.1184 338.307 95.1234C338.538 94.9339 338.76 94.7339 338.967 94.5198C338.916 95.1901 338.897 95.8657 338.918 96.5431C338.939 97.2117 339.265 97.6925 339.718 97.9575C338.037 99.9193 336.29 101.818 334.334 103.51ZM313.582 71.6019C313.374 70.1753 313.246 68.7346 313.21 67.2939C313.376 67.4974 313.537 67.7045 313.693 67.9168C313.615 70.5736 314.58 72.9567 315.478 75.4994C316.474 78.3176 317.524 81.113 318.715 83.8558C319.873 86.5249 321.169 89.1413 322.697 91.6191C322.811 91.8051 322.928 91.9928 323.045 92.1806C322.93 92.1525 322.796 92.0999 322.635 92.0192C322.238 91.8209 321.87 91.5735 321.524 91.2874C320.117 89.1904 318.832 87.0109 317.663 84.7981C316.942 83.4329 316.256 82.036 315.616 80.6129C314.662 77.6788 314.023 74.6307 313.582 71.6019ZM325.869 72.2495C327.15 74.3798 328.114 76.6523 328.74 79.0265C328.454 78.3773 328.161 77.7315 327.853 77.0927C327.82 77.0243 327.781 76.9629 327.739 76.9067C327.564 76.2434 327.393 75.5783 327.228 74.9133C326.993 73.9622 325.815 73.7902 325.155 74.2605C324.235 72.1722 323.206 70.1384 322.014 68.1818C321.443 67.2447 320.85 66.2866 320.234 65.3355C322.489 67.2728 324.388 69.7892 325.869 72.2495ZM356.245 63.2666C356.344 62.7928 356.426 62.2821 356.47 61.7767C356.599 62.1698 356.681 62.591 356.736 63.0174C356.569 63.0964 356.407 63.1788 356.245 63.2666ZM354.966 77.7104C355.451 77.1366 355.953 76.5768 356.477 76.0399C356.893 75.6117 357.361 75.2063 357.83 74.7939C356.191 77.5051 354.295 80.1005 352.33 82.6169C353.258 81.0095 354.139 79.374 354.966 77.7104ZM346.804 88.5025C347.02 88.5868 347.254 88.6341 347.491 88.6429C346.971 89.2782 346.451 89.9116 345.927 90.5434C346.221 89.8625 346.512 89.1816 346.804 88.5025ZM339.319 87.7743C339.408 87.5093 339.492 87.2513 339.568 87.0039C340.25 84.7753 341.005 82.5572 341.867 80.3918C343.589 76.0521 345.811 71.8967 348.403 68.0168C348.772 67.4623 349.149 66.9043 349.534 66.3498C347.885 70.3701 345.98 74.285 344.076 78.1877C342.793 80.8182 341.488 83.4381 340.165 86.0475C339.877 86.6108 339.599 87.2092 339.314 87.8129C339.315 87.8006 339.317 87.7866 339.319 87.7743ZM328.323 98.7506C329.085 99.3438 329.9 99.2946 330.466 98.9051C330.604 99.5543 330.566 100.56 330.805 101.171C330.73 101.142 330.664 101.116 330.623 101.095C330.126 100.837 329.645 100.521 329.194 100.191C328.171 99.4385 327.264 98.5243 326.412 97.5854C325.795 96.9046 325.203 96.1991 324.622 95.4832C324.779 95.4235 324.936 95.3533 325.092 95.2673C326.052 96.5817 327.118 97.8136 328.323 98.7506ZM321.87 83.4013C321.789 83.2363 321.708 83.0731 321.628 82.9082C320.705 81.0025 319.856 79.0634 319.042 77.1085C320.108 79.1511 321.08 81.2429 321.87 83.4013ZM351.581 56.3245C351.591 56.321 351.602 56.3193 351.612 56.3175C351.602 56.321 351.591 56.321 351.581 56.3245ZM355.26 69.9138C354.643 71.3106 353.99 72.6917 353.302 74.0569C353.053 74.3254 352.801 74.5939 352.561 74.8712C352.514 74.9256 352.469 74.9817 352.421 75.0361C353.292 72.8338 354.118 70.6105 354.838 68.3661C355.382 67.7256 355.967 67.1237 356.596 66.6165C356.259 67.7554 355.725 68.8627 355.26 69.9138ZM346.873 63.3227C347.771 62.5366 348.713 61.8048 349.707 61.145C349.718 61.138 349.73 61.131 349.741 61.124C349.264 61.6732 348.839 62.2154 348.483 62.6629C347.547 63.8439 346.65 65.053 345.789 66.2884C346.148 65.2986 346.51 64.3107 346.873 63.3227ZM326.72 87.862C326.583 87.1145 326.413 86.3774 326.223 85.6439C326.281 85.6404 326.339 85.6352 326.396 85.6264C327.147 88.7219 328.136 91.7542 329.397 94.6795C328.612 93.7652 327.812 92.8685 327.053 91.9297C327.189 90.5574 326.942 89.0641 326.72 87.862ZM331.654 84.7016C331.661 85.4386 331.678 86.1756 331.708 86.9109C331.478 86.1897 331.238 85.4737 330.989 84.7595C331.054 84.7683 331.12 84.7718 331.189 84.7736C331.342 84.7753 331.5 84.749 331.654 84.7016ZM312.857 90.8224C317.114 96.1658 322.415 101.032 328.361 104.42C329.948 105.326 331.618 106.105 333.343 106.709C334.315 107.049 334.95 107.191 335.824 106.57C336.584 106.028 337.253 105.291 337.915 104.638C340.655 101.936 343.052 98.9103 345.47 95.9219C350.488 89.7151 355.503 83.4452 359.735 76.6628C363.083 71.2984 366.091 63.8386 362.081 57.9565C359.961 54.8487 356.73 53.5151 353.323 53.4133C352.938 53.1834 352.504 53.0378 352.029 53.0062C351.154 52.95 350.394 53.2817 349.699 53.7415C347.111 54.2732 344.612 55.4015 342.605 56.8984C336.764 61.2556 333.833 67.9379 331.353 74.5886C330.152 70.0331 328.341 65.618 325.777 61.7557C322.293 56.5053 315.247 50.8688 308.701 54.3591C302.02 57.9214 302.421 66.8955 303.897 73.2076C305.416 79.7092 308.726 85.6352 312.857 90.8224Z" fill="#FD03C6" data-v-acbcb6fe=""></path></svg>