<svg data-v-4ede11e7="" width="18px" height="15px" viewBox="0 0 18 13" fill="#EA33C0" xmlns="http://www.w3.org/2000/svg" class=""><path data-v-4ede11e7="" fill-rule="evenodd" clip-rule="evenodd" d="M12.6822 3.5251H14.8913L17.1004 6.4501V10.1063H15.6277C15.6277 11.3202 14.6409 12.3001 13.4186 12.3001C12.1962 12.3001 11.2095 11.3202 11.2095 10.1063H6.7913C6.7913 11.3202 5.80457 12.3001 4.58221 12.3001C3.35985 12.3001 2.37312 11.3202 2.37312 10.1063H0.900391V2.0626C0.900391 1.25822 1.56312 0.600098 2.37312 0.600098H12.6822V3.5251ZM3.84585 10.1063C3.84585 10.5085 4.17721 10.8376 4.58221 10.8376C4.98721 10.8376 5.31857 10.5085 5.31857 10.1063C5.31857 9.70416 4.98721 9.3751 4.58221 9.3751C4.17721 9.3751 3.84585 9.70416 3.84585 10.1063ZM4.58221 7.9126C5.23757 7.9126 5.81194 8.19778 6.21694 8.64385H11.2095V2.0626H2.37312V8.64385H2.94748C3.35248 8.19778 3.92685 7.9126 4.58221 7.9126ZM12.6822 10.1063C12.6822 10.5085 13.0136 10.8376 13.4186 10.8376C13.8236 10.8376 14.1549 10.5085 14.1549 10.1063C14.1549 9.70416 13.8236 9.3751 13.4186 9.3751C13.0136 9.3751 12.6822 9.70416 12.6822 10.1063ZM15.6964 6.4501L14.4004 4.85464H12.6822V8.05395C12.9221 7.96277 13.1827 7.9126 13.4576 7.9126C14.113 7.9126 14.6873 8.19778 15.0923 8.64385H15.6964V6.4501Z"></path></svg>