<svg data-v-676140a4="" xmlns="http://www.w3.org/2000/svg" xmlns:xlink="http://www.w3.org/1999/xlink" version="1.1" width="38px" height="38px" viewBox="53 30 118 172" style="shape-rendering:geometricPrecision; text-rendering:geometricPrecision; image-rendering:optimizeQuality; fill-rule:evenodd; clip-rule:evenodd" class="installment-card__icon"><g data-v-676140a4=""><path data-v-676140a4="" fill="#fcdb00" d="M 108.5,39.5 C 154.113,37.5344 182.613,58.5344 194,102.5C 197.698,141.619 181.865,169.452 146.5,186C 117.296,195.625 90.9628,190.625 67.5,171C 62.0691,165.572 57.4025,159.572 53.5,153C 75.0025,140.081 96.6692,127.414 118.5,115C 104.958,94.0811 91.291,73.2478 77.5,52.5C 80.2846,49.6002 83.6179,47.4336 87.5,46C 94.3996,43.0861 101.4,40.9195 108.5,39.5 Z"></path></g><g data-v-676140a4=""><path data-v-676140a4="" fill="#10ae0d" d="M 60.5,47.5 C 75.303,68.1748 89.6363,89.3415 103.5,111C 81.4199,123.455 59.5866,136.288 38,149.5C 27.6017,132.106 24.6017,113.44 29,93.5C 33.8176,74.1741 44.3176,58.8408 60.5,47.5 Z"></path></g></svg>