<svg data-v-d8b62b8c="" data-v-2260e3a3="" width="23" height="19" viewBox="0 0 23 19" fill="none" xmlns="http://www.w3.org/2000/svg" class="info__logo"><path data-v-d8b62b8c="" data-v-2260e3a3="" fill-rule="evenodd" clip-rule="evenodd" d="M8.89072 0.114857L7.77102 6.53221H9.56244L10.6823 0.114857H8.89072ZM6.26376 0.114857L4.55576 4.52865L4.35372 3.57821L4.35386 3.57852L4.30934 3.3655C4.10263 2.95004 3.62388 2.16042 2.71987 1.48654C2.4526 1.28736 2.18319 1.11737 1.92274 0.972162L3.47505 6.53221H5.34157L8.19189 0.114857H6.26376ZM13.2554 1.89644C13.2554 1.1709 15.0001 1.26413 15.7667 1.65809L16.0224 0.27982C16.0224 0.27982 15.2334 0 14.411 0C13.522 0 11.4108 0.362591 11.4108 2.12442C11.4108 3.78251 13.8887 3.80312 13.8887 4.67364C13.8887 5.54416 11.6663 5.38859 10.9328 4.83945L10.6663 6.28007C10.6663 6.28007 11.4662 6.64266 12.6887 6.64266C13.911 6.64266 15.7556 6.05209 15.7556 4.44566C15.7556 2.7772 13.2554 2.6218 13.2554 1.89644ZM20.5657 0.114857H19.1254C18.4603 0.114857 18.2983 0.593105 18.2983 0.593105L15.6267 6.53221H17.494L17.8675 5.57905H20.145L20.3551 6.53221H22L20.5657 0.114857ZM18.3838 4.26214L19.3251 1.86062L19.8547 4.26214H18.3838Z" fill="#005BAC"></path><path data-v-d8b62b8c="" data-v-2260e3a3="" fill-rule="evenodd" clip-rule="evenodd" d="M3.77556 0.719023C3.77556 0.719023 3.70141 0.139847 2.90977 0.139847H0.0336886L0 0.248695C0 0.248695 1.38248 0.511516 2.70879 1.49618C3.97626 2.43728 4.38974 3.61041 4.38974 3.61041L3.77556 0.719023Z" fill="#F6AC1D"></path><path data-v-d8b62b8c="" data-v-2260e3a3="" fill-rule="evenodd" clip-rule="evenodd" d="M11.8197 17.4992C12.9599 18.4334 14.491 19 16.1565 19C19.7333 19 22.6282 16.4059 22.6282 13.2154C22.6282 10.0152 19.7333 7.42105 16.1565 7.42105C14.491 7.42105 12.9599 7.98756 11.8197 8.92185C10.5119 9.98527 9.68474 11.5159 9.68474 13.2154C9.68487 14.915 10.5119 16.4457 11.8197 17.4992Z" fill="#E9B040"></path><path data-v-d8b62b8c="" data-v-2260e3a3="" fill-rule="evenodd" clip-rule="evenodd" d="M21.7679 16.4357C21.7679 16.3362 21.8573 16.2568 21.969 16.2568C22.0919 16.2568 22.1812 16.3363 22.1812 16.4357C22.1812 16.5452 22.0918 16.6246 21.969 16.6246C21.8573 16.6246 21.7679 16.5452 21.7679 16.4357ZM21.969 16.5849C22.0585 16.5849 22.1365 16.5152 22.1365 16.4358C22.1365 16.3564 22.0583 16.2967 21.969 16.2967C21.8906 16.2967 21.8126 16.3564 21.8126 16.4358C21.8126 16.5152 21.8907 16.5849 21.969 16.5849ZM21.9466 16.5253H21.9019V16.3562H21.9801C21.9914 16.3562 22.0137 16.3562 22.0248 16.3663C22.0472 16.3761 22.0472 16.3862 22.0472 16.4061C22.0472 16.426 22.0361 16.4458 22.0137 16.4458L22.0585 16.5254H22.0024L21.9801 16.4557H21.9466V16.5253V16.4258H21.9914C22.0024 16.4258 22.0024 16.4158 22.0024 16.4059C22.0024 16.3959 22.0024 16.3959 21.9914 16.3861H21.9466V16.5253Z" fill="#E9B040"></path><path data-v-d8b62b8c="" data-v-2260e3a3="" fill-rule="evenodd" clip-rule="evenodd" d="M13.9099 12.5993C13.8876 12.3906 13.8429 12.1919 13.7981 11.9831H9.84128C9.886 11.7744 9.95309 11.5757 10.0201 11.3768H13.6082C13.5303 11.1676 13.4408 10.9619 13.3399 10.7606H10.2996C10.4114 10.5501 10.5345 10.3444 10.6685 10.1444H12.96C12.8126 9.93209 12.6482 9.72948 12.4683 9.53808H11.1604C11.3627 9.31839 11.5831 9.11241 11.8198 8.92185C10.6686 7.99751 9.14839 7.42105 7.47174 7.42105C3.90613 7.42105 1 10.0152 1 13.2154C1 16.4059 3.90613 19 7.47174 19C9.14839 19 10.6685 18.4334 11.8198 17.4992C12.0529 17.312 12.2697 17.1093 12.4683 16.8928H11.1604C10.9814 16.6941 10.825 16.4953 10.6685 16.2766H12.96C13.1041 16.08 13.2311 15.874 13.3401 15.6603H10.2996C10.199 15.4616 10.0985 15.2629 10.0201 15.0539H13.6082C13.6863 14.8552 13.7423 14.6466 13.798 14.4377C13.8427 14.239 13.8874 14.0304 13.9098 13.8215C13.9325 13.62 13.9437 13.4176 13.9435 13.2151C13.9435 13.0068 13.9323 12.7981 13.9099 12.5993Z" fill="#CC2131"></path><path data-v-d8b62b8c="" data-v-2260e3a3="" fill-rule="evenodd" clip-rule="evenodd" d="M21.7679 14.5573C21.7679 14.448 21.8573 14.3686 21.969 14.3686C22.0919 14.3686 22.1812 14.4481 22.1812 14.5573C22.1812 14.6567 22.0918 14.7462 21.969 14.7462C21.8573 14.7462 21.7679 14.6566 21.7679 14.5573ZM21.969 14.6964C22.0585 14.6964 22.1365 14.6367 22.1365 14.5573C22.1365 14.4778 22.0583 14.4182 21.969 14.4182C21.8906 14.4182 21.8126 14.4778 21.8126 14.5573C21.8126 14.6367 21.8907 14.6964 21.969 14.6964ZM21.9466 14.6367H21.9019V14.4777H22.0248C22.0472 14.4878 22.0472 14.5077 22.0472 14.5276C22.0472 14.5374 22.0361 14.5573 22.0137 14.5673L22.0585 14.6368H22.0024L21.9801 14.5772H21.9466V14.6367V14.5473H21.969C21.9801 14.5473 21.9914 14.5473 21.9914 14.5373C22.0024 14.5373 22.0024 14.5274 22.0024 14.5174C22.0024 14.5174 22.0024 14.5076 21.9914 14.5076C21.9914 14.4975 21.9801 14.5076 21.969 14.5076H21.9466V14.6367Z" fill="white"></path><path data-v-d8b62b8c="" data-v-2260e3a3="" fill-rule="evenodd" clip-rule="evenodd" d="M9.61776 14.8853C9.40544 14.9349 9.24889 14.9648 9.09247 14.9648C8.75715 14.9648 8.55587 14.7759 8.55587 14.438C8.55587 14.3685 8.56705 14.2989 8.57823 14.2193L8.62296 13.9909L8.65651 13.802L8.95829 12.172H9.62895L9.55067 12.5299H9.97546L9.87482 13.1262H9.45003L9.27125 14.1001C9.26007 14.15 9.26007 14.1797 9.26007 14.1996C9.26007 14.3288 9.32716 14.3784 9.49476 14.3784C9.57304 14.3784 9.64 14.3686 9.70709 14.3585L9.61776 14.8853ZM11.7863 14.8654C11.5404 14.925 11.3169 14.9548 11.0709 14.9548C10.3108 14.9548 9.87482 14.5969 9.87482 13.8914C9.87482 13.0664 10.3891 12.4701 11.1043 12.4701C11.6743 12.4701 12.0432 12.808 12.0432 13.3346C12.0432 13.5137 12.0208 13.6826 11.9651 13.9212H10.5678C10.5567 13.9609 10.5567 13.9808 10.5567 14.0007C10.5567 14.279 10.769 14.4181 11.1714 14.4181C11.4285 14.4181 11.652 14.3685 11.898 14.2692L11.7863 14.8654ZM11.3727 13.4441V13.3248C11.3727 13.1261 11.2497 13.0167 11.0374 13.0167C10.8137 13.0167 10.6573 13.1657 10.5902 13.444L11.3727 13.4441ZM4.25251 14.915H3.55949L3.96191 12.659L3.05656 14.915H2.576L2.52009 12.6689L2.09531 14.915H1.41347L1.96112 11.9831H2.97829L3.00065 13.7921L3.68249 11.9831H4.8003L4.25251 14.915ZM5.94047 13.8517C5.87337 13.8416 5.85101 13.8416 5.80628 13.8416C5.40386 13.8416 5.20272 13.9807 5.20272 14.1994C5.20272 14.3486 5.30336 14.448 5.45977 14.448C5.7951 14.448 5.92915 14.1994 5.94047 13.8517ZM6.4993 14.915H5.89574L5.90692 14.6666C5.75037 14.8553 5.53805 14.9548 5.16917 14.9548C4.83384 14.9548 4.54324 14.6865 4.54324 14.2989C4.54324 14.1896 4.56561 14.0903 4.59915 13.9909C4.71084 13.623 5.12444 13.3945 5.76155 13.3845C5.83983 13.3845 5.9627 13.3845 6.07452 13.3945C6.09675 13.315 6.09675 13.285 6.09675 13.2354C6.09675 13.0764 5.95152 13.0266 5.62737 13.0266C5.42623 13.0266 5.20259 13.0565 5.04617 13.1062L4.94553 13.1261L4.9008 13.1359L5.00144 12.5992C5.32559 12.5097 5.56028 12.4701 5.81746 12.4701C6.42103 12.4701 6.74518 12.7185 6.74518 13.1757C6.74518 13.295 6.75636 13.3845 6.71163 13.6429L6.55521 14.4976L6.53285 14.6468L6.52167 14.7661L6.51049 14.8456L6.4993 14.915ZM15.1619 12.5496C15.3631 12.5496 15.542 12.5993 15.7879 12.7086L15.9107 12.0725C15.8436 12.0426 15.8213 12.0426 15.7319 12.0128L15.4527 11.9432C15.3632 11.9233 15.2515 11.9134 15.1284 11.9134C14.7817 11.9134 14.5806 11.9233 14.3684 12.0327C14.2566 12.1023 14.1112 12.1918 13.9547 12.3508L13.8652 12.3309L13.1498 12.7781L13.1835 12.5296H12.4456L12.0099 14.9149H12.7143L12.9712 13.6329C12.9712 13.6329 13.072 13.4538 13.1165 13.3944C13.2507 13.2453 13.3624 13.2453 13.5077 13.2453H13.5637C13.5402 13.3967 13.529 13.5495 13.53 13.7024C13.53 14.4776 14.0218 14.9647 14.7819 14.9647C14.972 14.9647 15.1398 14.9448 15.3968 14.8852L15.5199 14.2094C15.2964 14.3186 15.0951 14.3684 14.9274 14.3684C14.5139 14.3684 14.2678 14.0901 14.2678 13.6528C14.2675 13.0068 14.6365 12.5496 15.1619 12.5496ZM21.0969 11.9831L20.9407 12.818C20.7729 12.5894 20.5717 12.48 20.3034 12.48C19.9344 12.48 19.588 12.6688 19.3756 13.0266V13.0168L18.9286 12.7782L18.9733 12.5297H18.2244L17.7996 14.915H18.4926L18.7274 13.633C18.7274 13.633 18.9062 13.454 18.9509 13.3945C19.0627 13.2752 19.1744 13.2552 19.2639 13.2454C19.1857 13.4441 19.141 13.6826 19.141 13.9511C19.141 14.5474 19.4874 14.9449 20.0015 14.9449C20.2587 14.9449 20.4598 14.8654 20.6498 14.6765L20.6164 14.915H21.276L21.8125 11.9831H21.0969ZM20.2365 14.3486C20.0016 14.3486 19.8788 14.1896 19.8788 13.8814C19.8788 13.4142 20.1023 13.0764 20.4263 13.0764C20.6722 13.0764 20.7953 13.2454 20.7953 13.5436C20.7953 14.0206 20.5718 14.3486 20.2365 14.3486ZM17.0063 13.8517C16.9392 13.8416 16.9168 13.8416 16.8721 13.8416C16.4694 13.8416 16.2683 13.9807 16.2683 14.1994C16.2683 14.3486 16.3691 14.448 16.5255 14.448C16.8608 14.448 16.995 14.1994 17.0063 13.8517ZM17.5651 14.915H16.9503L16.9726 14.6666C16.8162 14.8553 16.6036 14.9548 16.235 14.9548C15.8884 14.9548 15.5867 14.6964 15.5867 14.2989C15.5867 13.7325 16.0671 13.3846 16.8273 13.3846C16.9057 13.3846 17.0284 13.3846 17.1292 13.3947C17.1515 13.3151 17.1629 13.2852 17.1629 13.2356C17.1629 13.0765 17.0175 13.0268 16.6822 13.0268C16.4921 13.0268 16.2574 13.0566 16.101 13.1063L16.0115 13.1262L15.9668 13.136L16.0673 12.5993C16.3916 12.5098 16.6264 12.4702 16.8833 12.4702C17.4869 12.4702 17.7998 12.7187 17.7998 13.1758C17.7998 13.2951 17.8222 13.3846 17.7664 13.643L17.621 14.4977L17.5987 14.6469L17.5763 14.7662L17.5653 14.8457V14.915H17.5651ZM7.96349 13.0366C8.09767 13.0366 8.28763 13.0465 8.48891 13.0764L8.58955 12.5198C8.38827 12.4999 8.12004 12.4701 7.96349 12.4701C7.18114 12.4701 6.92409 12.8478 6.92409 13.285C6.92409 13.5734 7.06932 13.782 7.44938 13.9409C7.7288 14.0602 7.77352 14.08 7.77352 14.1895C7.77352 14.3384 7.62829 14.428 7.35992 14.428C7.1476 14.428 6.94632 14.3981 6.72281 14.3286L6.64454 14.8751L6.65559 14.8852L6.78977 14.905C6.8345 14.9149 6.89041 14.9249 6.96868 14.9348C7.13628 14.9448 7.28165 14.9546 7.3711 14.9546C8.15358 14.9546 8.47773 14.6864 8.47773 14.1596C8.47773 13.8317 8.29882 13.6329 7.95231 13.4938C7.65052 13.3744 7.61698 13.3548 7.61698 13.2453C7.61698 13.136 7.75116 13.0366 7.96349 13.0366Z" fill="#1B3771"></path><path data-v-d8b62b8c="" data-v-2260e3a3="" fill-rule="evenodd" clip-rule="evenodd" d="M16.1008 11.8837L15.9777 12.5198C15.7318 12.4104 15.5529 12.3608 15.3518 12.3608C14.8263 12.3608 14.4576 12.818 14.4576 13.464C14.4576 13.9113 14.7035 14.1796 15.1172 14.1796C15.2847 14.1796 15.486 14.13 15.7095 14.0306L15.5866 14.6964C15.3294 14.756 15.1618 14.786 14.9717 14.786C14.2117 14.786 13.7422 14.2989 13.7422 13.5138C13.7422 12.4702 14.3905 11.7346 15.3182 11.7346C15.4411 11.7346 15.5528 11.7446 15.6422 11.7645L15.9218 11.8241C16.0114 11.854 16.0337 11.8639 16.1008 11.8837ZM13.8429 12.321H13.7758C13.5412 12.321 13.407 12.4205 13.1946 12.7086L13.2617 12.3408H12.6244L12.1887 14.7262H12.893C13.15 13.2652 13.2171 13.0167 13.5524 13.0167H13.5971C13.6642 12.7285 13.7535 12.5197 13.8654 12.3309L13.8429 12.321ZM9.79668 14.6964C9.60672 14.756 9.45017 14.7759 9.29376 14.7759C8.93606 14.7759 8.73479 14.597 8.73479 14.2493C8.73479 14.1896 8.74597 14.1102 8.75715 14.0405L8.80188 13.802L8.83542 13.6133L9.13721 11.9831H9.83023L9.75195 12.3409H10.1096L10.0202 12.9273H9.6625L9.47254 13.9213C9.46135 13.961 9.46135 13.991 9.46135 14.0207C9.46135 14.14 9.52845 14.1897 9.69604 14.1897C9.77432 14.1897 9.84128 14.1897 9.88601 14.1698L9.79668 14.6964ZM7.10287 13.0962C7.10287 13.3945 7.25929 13.6031 7.62816 13.7622C7.91876 13.8815 7.96349 13.9212 7.96349 14.0206C7.96349 14.1697 7.84049 14.2392 7.56107 14.2392C7.34874 14.2392 7.15865 14.2095 6.93514 14.1498L6.83451 14.6964L6.86805 14.7064L6.99105 14.7263C7.03565 14.7361 7.09169 14.7462 7.18102 14.7462C7.33743 14.7661 7.47162 14.7661 7.56107 14.7661C8.29869 14.7661 8.64533 14.5175 8.64533 13.971C8.64533 13.6429 8.5001 13.454 8.15359 13.305C7.8518 13.1857 7.81826 13.156 7.81826 13.0466C7.81826 12.9175 7.94126 12.8578 8.16477 12.8578C8.29895 12.8578 8.48891 12.8678 8.66783 12.8877L8.76833 12.3411C8.58955 12.3112 8.31013 12.2913 8.15359 12.2913C7.37111 12.2912 7.09169 12.659 7.10287 13.0962ZM21.4549 14.7263H20.7953L20.829 14.4976C20.6389 14.6765 20.4376 14.756 20.1804 14.756C19.6663 14.756 19.331 14.3686 19.331 13.7722C19.331 12.977 19.8564 12.3012 20.471 12.3012C20.7506 12.3012 20.9517 12.4105 21.1419 12.6292L21.2984 11.7943H21.9914L21.4549 14.7263ZM20.4264 14.1697C20.7507 14.1697 20.9742 13.8318 20.9742 13.3646C20.9742 13.0565 20.8511 12.8974 20.6052 12.8974C20.2922 12.8974 20.0577 13.2254 20.0577 13.6926C20.0577 14.0108 20.1805 14.1697 20.4264 14.1697ZM11.9427 14.6765C11.6967 14.7462 11.4732 14.7759 11.2161 14.7759C10.4337 14.7759 10.0312 14.4082 10.0312 13.7025C10.0312 12.8876 10.5455 12.2813 11.2497 12.2813C11.8309 12.2813 12.1996 12.6192 12.1996 13.146C12.1996 13.3249 12.1773 13.494 12.1102 13.7423H10.7244C10.7132 13.7722 10.7132 13.7921 10.7132 13.812C10.7132 14.0903 10.9257 14.2294 11.328 14.2294C11.585 14.2294 11.8085 14.1896 12.0545 14.0802L11.9427 14.6765ZM11.5515 13.2552V13.136C11.5515 12.9373 11.4285 12.8279 11.2161 12.8279C10.9926 12.8279 10.8361 12.977 10.769 13.2552H11.5515ZM4.43143 14.7263H3.73841L4.14083 12.4701L3.23548 14.7263H2.75479L2.69888 12.49L2.27422 14.7263H1.62593L2.17359 11.7943H3.17957L3.21312 13.6132L3.88364 11.7943H4.97908L4.43143 14.7263ZM6.16398 13.6628C6.09689 13.6628 6.06334 13.6529 6.00743 13.6529C5.61619 13.6529 5.41505 13.7821 5.41505 14.0206C5.41505 14.1697 5.50451 14.2591 5.66092 14.2591C5.95152 14.2591 6.1528 14.0206 6.16398 13.6628ZM6.67809 14.7263H6.09676L6.10794 14.4777C5.92903 14.6765 5.69434 14.7661 5.37019 14.7661C4.99013 14.7661 4.73308 14.5077 4.73308 14.12C4.73308 13.5337 5.1801 13.1958 5.96257 13.1958C6.04085 13.1958 6.14148 13.2057 6.25317 13.2156C6.27554 13.1361 6.27554 13.1063 6.27554 13.0665C6.27554 12.9076 6.15253 12.8479 5.82839 12.8479C5.62724 12.8479 5.4036 12.8678 5.24719 12.9076L5.14655 12.9374L5.07946 12.9473L5.1801 12.4107C5.52661 12.3212 5.7613 12.2913 6.01848 12.2913C6.62205 12.2913 6.94619 12.5298 6.94619 12.987C6.94619 13.1063 6.93501 13.1958 6.89028 13.4641L6.73374 14.309L6.71137 14.458L6.70019 14.5773L6.68901 14.6669L6.67809 14.7263ZM17.2298 13.6628C17.1514 13.6628 17.118 13.6529 17.0734 13.6529C16.671 13.6529 16.4696 13.7821 16.4696 14.0206C16.4696 14.1697 16.5703 14.2591 16.7268 14.2591C17.0063 14.2591 17.2185 14.0206 17.2298 13.6628ZM17.7439 14.7263H17.1627L17.1738 14.4777C16.995 14.6765 16.7603 14.7661 16.4362 14.7661C16.0561 14.7661 15.7989 14.5077 15.7989 14.12C15.7989 13.5337 16.2459 13.1958 17.0284 13.1958C17.1068 13.1958 17.2075 13.2057 17.308 13.2156C17.3303 13.1361 17.3416 13.1063 17.3416 13.0665C17.3416 12.9076 17.2185 12.8479 16.8946 12.8479C16.6932 12.8479 16.4587 12.8678 16.3021 12.9076L16.2126 12.9374L16.1456 12.9473L16.2461 12.4107C16.5927 12.3212 16.8273 12.2913 17.0844 12.2913C17.688 12.2913 18.001 12.5298 18.001 12.987C18.001 13.1063 18.001 13.1958 17.9452 13.4641L17.7998 14.309L17.7775 14.458L17.7551 14.5773L17.7441 14.6669L17.7439 14.7263ZM19.6217 12.321H19.5546C19.3201 12.321 19.1859 12.4205 18.9734 12.7086L19.0405 12.3408H18.4033L17.9785 14.7262H18.6715C18.9287 13.2652 18.9958 13.0167 19.3311 13.0167H19.3758C19.4429 12.7285 19.5323 12.5197 19.6441 12.3309L19.6217 12.321Z" fill="white"></path></svg>